<svg
   width="107.76894"
   height="101.27607"
   viewBox="0 0 107.76894 101.27607">
  <sodipodi:namedview
     id="namedview7"
     pagecolor="#ffffff"
     bordercolor="#000000"
     borderopacity="0.25"
     inkscape:showpageshadow="2"
     inkscape:pageopacity="0.0"
     inkscape:pagecheckerboard="0"
     inkscape:deskcolor="#d1d1d1"
     inkscape:document-units="px"
     showgrid="false" />
  <defs
     id="defs2" />
  <g
     inkscape:label="Capa 1"
     inkscape:groupmode="layer"
     id="layer1"
     transform="translate(-8.1003895,-4.6383443)">
    <path
       style="fill:none;stroke:#000000;stroke-width:4.76599;stroke-linecap:round;stroke-linejoin:round;stroke-dasharray:none;stroke-dashoffset:0;stroke-opacity:1"
       d="M 19.559678,31.728324 C 3.2476676,15.281082 24.093052,-4.9780789 43.568252,15.804063 56.614357,29.725667 98.757061,61.476987 77.523237,72.309504 55.739766,83.422429 35.311361,47.610594 19.559678,31.728324 Z"
       id="path1940"
       sodipodi:nodetypes="ssss" />
    <path
       style="fill:none;stroke:#000000;stroke-width:5;stroke-linecap:round;stroke-linejoin:round;stroke-dasharray:none;stroke-dashoffset:0;stroke-opacity:1"
       d="m 74.380989,75.190072 c 0,0 4.076345,15.342613 13.303195,15.640247 11.145927,0.359538 7.190919,10.606601 15.640246,12.584091"
       id="path1942"
       sodipodi:nodetypes="csc" />
    <path
       style="fill:none;stroke:#000000;stroke-width:5;stroke-linecap:round;stroke-linejoin:round;stroke-dasharray:none;stroke-dashoffset:0;stroke-opacity:1"
       d="m 80.268604,71.841778 c 0,0 7.011144,2.337048 13.303195,15.640244 3.947098,8.345297 15.100921,5.033637 15.640241,12.584098"
       id="path1942-3"
       sodipodi:nodetypes="csc" />
    <path
       style="fill:none;stroke:#000000;stroke-width:5;stroke-linecap:round;stroke-linejoin:round;stroke-dasharray:none;stroke-dashoffset:0;stroke-opacity:1"
       d="m 84.425879,67.864275 c 0,0 6.061902,9.988992 15.100922,11.865013 9.527969,1.977501 7.550469,10.606604 13.842529,16.359341"
       id="path1942-3-9"
       sodipodi:nodetypes="csc" />
    <path
       style="fill:none;stroke:#000000;stroke-width:2.8;stroke-linecap:round;stroke-linejoin:round;stroke-dasharray:none;stroke-dashoffset:0;stroke-opacity:1"
       d="m 20.291841,22.786164 c 0,0 -3.955004,-14.381833 11.865012,-9.707737"
       id="path2008" />
    <path
       style="fill:none;stroke:#000000;stroke-width:2.8;stroke-linecap:round;stroke-linejoin:round;stroke-dasharray:none;stroke-dashoffset:0;stroke-opacity:1"
       d="m 55.729602,63.100292 c 0,0 7.550463,6.83137 15.280698,2.51682 7.730235,-4.31455 -0.359546,-14.20206 -0.359546,-14.20206"
       id="path2010" />
    <text
       xml:space="preserve"
       style="font-weight:bold;font-size:24px;font-family:Arial;-inkscape-font-specification:'Arial, Bold';fill:#000000;fill-opacity:1;stroke:none;stroke-width:0.9;stroke-linecap:round;stroke-linejoin:round;stroke-dasharray:none;stroke-dashoffset:0;stroke-opacity:1"
       x="9.2256098"
       y="101.90018"
       id="text2124"><tspan
         sodipodi:role="line"
         id="tspan2122"
         x="9.2256098"
         y="101.90018"
         style="font-size:24px;fill:#000000;fill-opacity:1;stroke:none;stroke-width:0.9;stroke-dasharray:none">e-coli</tspan></text>
    <path
       style="fill:none;fill-opacity:1;stroke:#000000;stroke-width:2.4;stroke-linecap:round;stroke-linejoin:round;stroke-dasharray:none;stroke-dashoffset:0;stroke-opacity:1"
       d="m 22.134925,35.527485 c 0,0 -3.743947,-0.953787 -6.324264,4.650194 -1.532983,3.329361 -6.5102719,4.278179 -6.5102719,4.278179"
       id="path2126"
       sodipodi:nodetypes="csc" />
    <path
       style="fill:none;fill-opacity:1;stroke:#000000;stroke-width:2.4;stroke-linecap:round;stroke-linejoin:round;stroke-dasharray:none;stroke-dashoffset:0;stroke-opacity:1"
       d="m 28.486774,43.776547 c 0,0 -3.743947,-0.953787 -6.324264,4.650194 -1.532982,3.329361 -6.510271,4.278179 -6.510271,4.278179"
       id="path2126-9"
       sodipodi:nodetypes="csc" />
    <path
       style="fill:none;fill-opacity:1;stroke:#000000;stroke-width:2.4;stroke-linecap:round;stroke-linejoin:round;stroke-dasharray:none;stroke-dashoffset:0;stroke-opacity:1"
       d="m 57.318355,7.6607027 c 0,0 -3.743947,-0.953786 -6.324264,4.6501943 -1.532982,3.329361 -6.510271,4.278179 -6.510271,4.278179"
       id="path2126-9-5"
       sodipodi:nodetypes="csc" />
    <path
       style="fill:none;fill-opacity:1;stroke:#000000;stroke-width:2.4;stroke-linecap:round;stroke-linejoin:round;stroke-dasharray:none;stroke-dashoffset:0;stroke-opacity:1"
       d="m 67.709016,17.2622 c 0,0 -3.743947,-0.953786 -6.324264,4.650195 -1.532982,3.329361 -6.510271,4.278178 -6.510271,4.278178"
       id="path2126-9-5-5"
       sodipodi:nodetypes="csc" />
    <path
       style="fill:none;fill-opacity:1;stroke:#000000;stroke-width:2.4;stroke-linecap:round;stroke-linejoin:round;stroke-dasharray:none;stroke-dashoffset:0;stroke-opacity:1"
       d="m 85.596737,35.018394 c 0,0 -3.743947,-0.953786 -6.324264,4.650195 -1.532982,3.329361 -6.510272,4.278178 -6.510272,4.278178"
       id="path2126-9-5-5-8"
       sodipodi:nodetypes="csc" />
    <path
       style="fill:none;fill-opacity:1;stroke:#000000;stroke-width:2.4;stroke-linecap:round;stroke-linejoin:round;stroke-dasharray:none;stroke-dashoffset:0;stroke-opacity:1"
       d="m 38.432937,54.038896 c 0,0 -1.681906,4.696574 -6.603275,5.022209 -4.92137,0.325635 -7.021794,5.301222 -7.021794,5.301222"
       id="path2126-7"
       sodipodi:nodetypes="czc" />
    <path
       style="fill:none;fill-opacity:1;stroke:#000000;stroke-width:2.4;stroke-linecap:round;stroke-linejoin:round;stroke-dasharray:none;stroke-dashoffset:0;stroke-opacity:1"
       d="m 47.191433,62.048764 c 0,0 -1.681906,4.696574 -6.603275,5.022209 -4.92137,0.325635 -7.021794,5.301222 -7.021794,5.301222"
       id="path2126-7-5"
       sodipodi:nodetypes="czc" />
    <path
       style="fill:none;fill-opacity:1;stroke:#000000;stroke-width:2.4;stroke-linecap:round;stroke-linejoin:round;stroke-dasharray:none;stroke-dashoffset:0;stroke-opacity:1"
       d="m 77.157165,26.522575 c 0,0 -0.829701,3.998361 -5.347723,3.813159 -4.518023,-0.185202 -7.300805,4.743198 -7.300805,4.743198"
       id="path2126-5"
       sodipodi:nodetypes="czc" />
  </g>
</svg>
